HIERARCHY
ROOT reference
{
  OFFSET 0 0 0
  CHANNELS 6 Xposition Yposition Zposition Zrotation Xrotation Yrotation
  JOINT Hips
  {
    OFFSET -20.7096 70.7496 81.5274
    CHANNELS 6 Xposition Yposition Zposition Zrotation Xrotation Yrotation
    JOINT Spine
    {
      OFFSET 0 8.12958 0
      CHANNELS 6 Xposition Yposition Zposition Zrotation Xrotation Yrotation
      JOINT Spine1
      {
        OFFSET 0 26.3907 0
        CHANNELS 6 Xposition Yposition Zposition Zrotation Xrotation Yrotation
        JOINT Neck
        {
          OFFSET 0 26.2823 2.3893
          CHANNELS 6 Xposition Yposition Zposition Zrotation Xrotation Yrotation
          JOINT Head
          {
            OFFSET 0 13.8798 -1.98282
            CHANNELS 6 Xposition Yposition Zposition Zrotation Xrotation Yrotation
            End Site
            {
              OFFSET 0 24.7853 0
            }
          }
        }
        JOINT LeftShoulder
        {
          OFFSET 3.97789 23.5745 -0.27352
          CHANNELS 6 Xposition Yposition Zposition Zrotation Xrotation Yrotation
          JOINT LeftArm
          {
            OFFSET 13.7626 0 0
            CHANNELS 6 Xposition Yposition Zposition Zrotation Xrotation Yrotation
            JOINT LeftForeArm
            {
              OFFSET 26.1014 0 0
              CHANNELS 6 Xposition Yposition Zposition Zrotation Xrotation Yrotation
              JOINT LeftHand
              {
                OFFSET 29.9599 0 0
                CHANNELS 6 Xposition Yposition Zposition Zrotation Xrotation Yrotation
                End Site
                {
                  OFFSET 14.8712 0 0
                }
              }
            }
          }
        }
        JOINT RightShoulder
        {
          OFFSET -3.9517 23.5745 -0.27352
          CHANNELS 6 Xposition Yposition Zposition Zrotation Xrotation Yrotation
          JOINT RightArm
          {
            OFFSET -13.7626 0 0
            CHANNELS 6 Xposition Yposition Zposition Zrotation Xrotation Yrotation
            JOINT RightForeArm
            {
              OFFSET -26.1014 0 0
              CHANNELS 6 Xposition Yposition Zposition Zrotation Xrotation Yrotation
              JOINT RightHand
              {
                OFFSET -29.9599 0 0
                CHANNELS 6 Xposition Yposition Zposition Zrotation Xrotation Yrotation
                End Site
                {
                  OFFSET -14.8712 0 0
                }
              }
            }
          }
        }
      }
    }
    JOINT LeftUpLeg
    {
      OFFSET 9.91412 0 0
      CHANNELS 6 Xposition Yposition Zposition Zrotation Xrotation Yrotation
      JOINT LeftLeg
      {
        OFFSET 0 -41.4279 0
        CHANNELS 6 Xposition Yposition Zposition Zrotation Xrotation Yrotation
        JOINT LeftFoot
        {
          OFFSET 0 -41.0254 0
          CHANNELS 6 Xposition Yposition Zposition Zrotation Xrotation Yrotation
          JOINT LeftToeBase
          {
            OFFSET 0 -6.44418 14.8712
            CHANNELS 6 Xposition Yposition Zposition Zrotation Xrotation Yrotation
            End Site
            {
              OFFSET 0 0 3.96565
            }
          }
        }
      }
    }
    JOINT RightUpLeg
    {
      OFFSET -9.91412 0 0
      CHANNELS 6 Xposition Yposition Zposition Zrotation Xrotation Yrotation
      JOINT RightLeg
      {
        OFFSET 0 -41.4279 0
        CHANNELS 6 Xposition Yposition Zposition Zrotation Xrotation Yrotation
        JOINT RightFoot
        {
          OFFSET 0 -41.0254 0
          CHANNELS 6 Xposition Yposition Zposition Zrotation Xrotation Yrotation
          JOINT RightToeBase
          {
            OFFSET 0 -6.44418 14.8712
            CHANNELS 6 Xposition Yposition Zposition Zrotation Xrotation Yrotation
            End Site
            {
              OFFSET 0 0 3.96565
            }
          }
        }
      }
    }
  }
}
MOTION
Frames:	11
Frame Time:	0.004
0 0 0 0 0 -0 -15.718 62.4676 -138.977 2.93257 -6.67524 -12.8977 7.10543e-015 8.12958 2.84217e-014 8.5906 52.7781 -6.89628 0 26.3907 0 -0.143869 12.438 -2.61201 0 26.2823 2.3893 0.903191 -16.6577 -22.1239 0 13.8798 -1.98282 15.2671 -13.3182 -19.5019 3.97789 23.5745 -0.27352 -15.8841 19.7373 -11.4645 13.7626 1.42109e-014 0 -9.86586 29.0596 -48.7395 26.1014 -1.42109e-014 -3.55271e-015 52.0532 -33.4584 -59.0379 29.9599 -7.10543e-015 1.42109e-014 -6.73176 -2.9471 -1.05814 -3.9517 23.5745 -0.27352 13.1374 12.192 15.9538 -13.7626 0 0 11.8716 25.5739 40.8415 -26.1014 0 1.42109e-014 -21.8013 -30.5996 28.1648 -29.9599 0 -1.42109e-014 4.3608 -25.3379 11.0413 9.91412 0 -1.42109e-014 4.84972 -48.9297 1.42258 -3.55271e-015 -41.4279 -7.10543e-015 -170.911 71.1815 162.266 0 -41.0254 0 -5.74338 -27.8574 13.257 -8.88178e-016 -6.44418 14.8712 2.98177e-016 0 1.98785e-016 -9.91412 0 1.42109e-014 -19.5437 -44.0699 -14.5789 0 -41.4279 -7.10543e-015 166.297 83.294 -142.271 7.10543e-015 -41.0254 0 -10.1065 -31.4865 -31.1074 -1.42109e-014 -6.44418 14.8712 -7.95139e-016 1.59028e-015 3.18055e-015 
0 0 0 0 0 -0 -15.4741 62.5019 -138.735 3.08938 -6.77503 -12.9719 0 8.12958 0 8.67005 52.8074 -7.01835 0 26.3907 -2.84217e-014 -0.208826 12.4354 -2.68465 -7.10543e-015 26.2823 2.3893 0.8602 -16.6621 -22.1866 2.84217e-014 13.8798 -1.98282 15.2371 -13.3846 -19.5539 3.97789 23.5745 -0.27352 -15.8381 19.7387 -11.5141 13.7626 0 0 -9.83096 29.0682 -48.8254 26.1014 0 3.55271e-015 52.1172 -33.4959 -59.0034 29.9599 0 0 -7.06396 -2.94993 -1.29761 -3.9517 23.5745 -0.27352 13.1897 12.1548 15.9141 -13.7626 -7.10543e-015 0 11.8429 25.6975 40.7269 -26.1014 -1.42109e-014 -1.42109e-014 -21.9713 -30.2653 27.7971 -29.9599 0 0 4.50133 -24.9872 11.4929 9.91412 0 0 4.80291 -49.2269 1.23426 -7.10543e-015 -41.4279 -7.10543e-015 -170.619 71.8569 162.529 0 -41.0254 0 -5.93574 -27.8817 13.0462 -4.44089e-016 -6.44418 14.8712 9.93923e-017 0 -1.98785e-016 -9.91412 0 0 -19.9403 -43.8962 -14.6613 1.42109e-014 -41.4279 1.42109e-014 166.425 83.2137 -142.3 0 -41.0254 0 -10.0166 -31.5116 -31.4054 1.42109e-014 -6.44418 14.8712 1.59028e-015 3.18055e-015 -3.18055e-015 
0 0 0 0 0 -0 -15.2409 62.5309 -138.479 3.22269 -6.84543 -13.1196 0 8.12958 -2.84217e-014 8.61049 52.8054 -7.04474 0 26.3907 0 -0.250528 12.4463 -2.73636 0 26.2823 2.3893 0.8553 -16.755 -22.1768 0 13.8798 -1.98282 15.1238 -13.3102 -19.5807 3.97789 23.5745 -0.27352 -15.8289 19.7372 -11.4956 13.7626 0 -1.42109e-014 -9.83159 29.0431 -48.8807 26.1014 0 0 52.0422 -33.5636 -59.1513 29.9599 0 1.42109e-014 -6.95691 -2.99002 -1.22962 -3.9517 23.5745 -0.27352 13.2568 12.1962 15.9062 -13.7626 7.10543e-015 0 11.8058 25.6899 40.6188 -26.1014 0 0 -22.0592 -29.9558 27.4737 -29.9599 -7.10543e-015 0 5.30836 -24.6136 11.8494 9.91412 1.42109e-014 -1.42109e-014 4.95733 -49.4801 1.36756 -3.55271e-015 -41.4279 0 -170.793 72.5311 162.535 0 -41.0254 1.42109e-014 -5.62055 -28.2011 13.5554 4.44089e-016 -6.44418 14.8712 -3.97569e-016 6.36111e-015 5.96354e-016 -9.91412 1.42109e-014 -1.42109e-014 -20.2313 -43.7733 -14.6356 -1.42109e-014 -41.4279 -7.10543e-015 166.354 83.1549 -142.388 0 -41.0254 1.42109e-014 -9.79952 -31.5692 -31.43 0 -6.44418 14.8712 -8.82781e-032 1.59028e-015 3.18055e-015 
0 0 0 0 0 -0 -15.018 62.551 -138.241 3.34552 -6.9257 -13.2367 -1.42109e-014 8.12958 -2.84217e-014 8.5097 52.8783 -7.00852 7.10543e-015 26.3907 0 -0.20407 12.404 -2.74878 7.10543e-015 26.2823 2.3893 0.84377 -16.917 -22.2324 0 13.8798 -1.98282 14.9644 -13.2221 -19.6879 3.97789 23.5745 -0.27352 -15.8198 19.7492 -11.5246 13.7626 -1.42109e-014 2.84217e-014 -9.88986 28.9809 -48.9401 26.1014 0 0 51.9348 -33.5802 -59.3775 29.9599 7.10543e-015 0 -7.01948 -2.93832 -1.14632 -3.9517 23.5745 -0.27352 13.3522 12.3718 15.7416 -13.7626 0 -2.84217e-014 11.5566 25.6591 40.6168 -26.1014 0 -1.42109e-014 -22.1846 -29.695 27.1688 -29.9599 -1.42109e-014 1.42109e-014 5.51893 -24.3317 12.2353 9.91412 0 -1.42109e-014 5.02869 -49.8191 1.35625 0 -41.4279 7.10543e-015 -170.632 73.1716 162.868 0 -41.0254 0 -5.73455 -28.167 13.4594 0 -6.44418 14.8712 -7.95139e-016 -6.36111e-015 -1.98785e-016 -9.91412 0 -1.42109e-014 -20.5142 -43.6469 -14.6633 -1.42109e-014 -41.4279 -1.42109e-014 166.668 83.0916 -142.77 0 -41.0254 -1.42109e-014 -9.64647 -31.6077 -31.5546 0 -6.44418 14.8712 -1.59028e-015 -1.59028e-015 6.36111e-015 
0 0 0 0 0 -0 -14.7888 62.5752 -137.99 3.45714 -7.01056 -13.3608 -7.10543e-015 8.12958 0 8.44662 52.9319 -6.99972 0 26.3907 0 -0.192338 12.3555 -2.76792 7.10543e-015 26.2823 2.3893 0.843268 -16.9017 -22.2954 0 13.8798 -1.98282 14.8893 -13.2743 -19.7658 3.97789 23.5745 -0.27352 -15.7907 19.8216 -11.5839 13.7626 0 0 -9.87567 28.9322 -49.0115 26.1014 1.42109e-014 0 51.9375 -33.5667 -59.4553 29.9599 0 -1.42109e-014 -6.75585 -2.87543 -1.02563 -3.9517 23.5745 -0.27352 13.4141 12.3659 15.6671 -13.7626 0 2.84217e-014 11.4823 25.9038 40.5022 -26.1014 0 0 -22.1977 -29.7331 27.0679 -29.9599 -7.10543e-015 0 4.55568 -24.5201 11.1939 9.91412 0 -1.42109e-014 5.19131 -50.0263 1.40261 3.55271e-015 -41.4279 1.42109e-014 -170.341 73.8715 162.675 0 -41.0254 1.42109e-014 -5.72266 -28.4423 13.6031 0 -6.44418 14.8712 -6.95746e-016 0 -7.95139e-016 -9.91412 0 1.42109e-014 -20.8005 -43.5009 -14.6836 0 -41.4279 7.10543e-015 166.943 83.0115 -142.754 0 -41.0254 1.42109e-014 -9.66001 -31.6061 -32.0649 0 -6.44418 14.8712 -1.59028e-015 4.77083e-015 3.18055e-015 
0 0 0 0 0 -0 -14.5688 62.5927 -137.74 3.56726 -7.08162 -13.5279 0 8.12958 0 8.34098 52.9513 -6.97595 -7.10543e-015 26.3907 0 -0.239215 12.3355 -2.79018 0 26.2823 2.3893 0.887157 -16.8077 -22.3283 0 13.8798 -1.98282 14.8914 -13.4156 -19.7943 3.97789 23.5745 -0.27352 -15.7246 19.8704 -11.5853 13.7626 1.42109e-014 0 -9.92799 28.8881 -49.0773 26.1014 -1.42109e-014 -7.10543e-015 51.8815 -33.6063 -59.5543 29.9599 0 0 -6.93453 -2.89285 -1.06163 -3.9517 23.5745 -0.27352 13.5237 12.4481 15.6744 -13.7626 0 0 11.3664 25.9955 40.3587 -26.1014 0 0 -22.5653 -29.3151 26.5378 -29.9599 -7.10543e-015 0 5.55765 -23.9617 12.2827 9.91412 0 -1.42109e-014 5.39631 -50.2745 1.5339 0 -41.4279 -7.10543e-015 -170.036 74.5688 163.012 0 -41.0254 -1.42109e-014 -5.94241 -28.5014 13.2536 0 -6.44418 14.8712 9.93923e-017 0 3.97569e-016 -9.91412 0 1.42109e-014 -21.0311 -43.3809 -14.581 0 -41.4279 0 166.405 82.9431 -142.327 0 -41.0254 2.84217e-014 -9.54052 -31.6816 -32.2013 0 -6.44418 14.8712 -1.59028e-015 -4.77083e-015 -6.36111e-015 
0 0 0 0 0 -0 -14.3387 62.613 -137.489 3.67136 -7.1724 -13.6287 0 8.12958 -1.42109e-014 8.31204 52.9357 -7.01892 0 26.3907 0 -0.253238 12.4118 -2.84735 0 26.2823 2.3893 0.916209 -16.8087 -22.3677 0 13.8798 -1.98282 14.8237 -13.4711 -19.8543 3.97789 23.5745 -0.27352 -15.6691 19.8595 -11.6303 13.7626 1.42109e-014 0 -9.95413 28.8746 -49.1121 26.1014 1.42109e-014 0 51.901 -33.6488 -59.5993 29.9599 -7.10543e-015 0 -7.0401 -2.89306 -1.11525 -3.9517 23.5745 -0.27352 13.5648 12.4393 15.6687 -13.7626 7.10543e-015 2.84217e-014 11.3496 26.0537 40.2577 -26.1014 -1.42109e-014 0 -22.7296 -29.0293 26.1827 -29.9599 -7.10543e-015 1.42109e-014 5.91469 -23.6462 12.5508 9.91412 0 -1.42109e-014 5.50359 -50.4834 1.47248 0 -41.4279 0 -169.271 75.2423 162.48 0 -41.0254 1.42109e-014 -5.83162 -28.6425 13.4363 8.88178e-016 -6.44418 14.8712 -2.98177e-016 -3.18055e-015 3.97569e-016 -9.91412 0 1.42109e-014 -21.3299 -43.1887 -14.5385 0 -41.4279 0 165.885 82.8812 -141.644 0 -41.0254 2.84217e-014 -9.56563 -31.7501 -32.5666 1.42109e-014 -6.44418 14.8712 -0 0 1.27222e-014 
0 0 0 0 0 -0 -14.1066 62.6305 -137.238 3.77625 -7.24432 -13.7414 0 8.12958 0 8.2912 53.0014 -7.04657 7.10543e-015 26.3907 0 -0.269092 12.3287 -2.87799 7.10543e-015 26.2823 2.3893 0.862314 -16.9197 -22.4279 0 13.8798 -1.98282 14.7586 -13.2825 -19.9424 3.97789 23.5745 -0.27352 -15.6465 19.8953 -11.6567 13.7626 0 -1.42109e-014 -10.0488 28.8413 -49.1286 26.1014 0 7.10543e-015 51.7988 -33.6532 -59.7617 29.9599 0 1.42109e-014 -7.06518 -2.86151 -1.14063 -3.9517 23.5745 -0.27352 13.6516 12.4671 15.5469 -13.7626 0 0 11.3623 26.0344 40.1595 -26.1014 1.42109e-014 1.42109e-014 -22.4254 -28.7409 26.175 -29.9599 -7.10543e-015 -1.42109e-014 4.82648 -23.5896 10.8531 9.91412 0 1.42109e-014 5.62538 -50.6991 1.47264 3.55271e-015 -41.4279 7.10543e-015 -168.488 75.9998 162.711 0 -41.0254 1.42109e-014 -6.35843 -28.5609 12.4869 0 -6.44418 14.8712 -1.2921e-015 3.18055e-015 7.95139e-016 -9.91412 1.42109e-014 -1.42109e-014 -21.5989 -43.0573 -14.5178 0 -41.4279 0 165.481 82.8929 -142.195 7.10543e-015 -41.0254 1.42109e-014 -8.89526 -31.941 -31.7154 -1.42109e-014 -6.44418 14.8712 8.82781e-032 -1.59028e-015 3.18055e-015 
0 0 0 0 0 -0 -13.888 62.6424 -136.979 3.85029 -7.31392 -13.9113 0 8.12958 -1.42109e-014 8.14397 53.0219 -6.96882 0 26.3907 0 -0.233406 12.3204 -2.87596 7.10543e-015 26.2823 2.3893 0.944338 -16.8761 -22.4443 0 13.8798 -1.98282 14.583 -13.4048 -20.0122 3.97789 23.5745 -0.27352 -15.6584 19.977 -11.6923 13.7626 0 0 -10.0305 28.7901 -49.1814 26.1014 0 -3.55271e-015 51.7348 -33.7247 -59.8341 29.9599 -7.10543e-015 0 -7.07813 -2.94625 -1.13466 -3.9517 23.5745 -0.27352 13.749 12.485 15.4683 -13.7626 1.42109e-014 0 11.2827 26.0014 40.0603 -26.1014 0 0 -22.2298 -28.4675 26.0128 -29.9599 -1.42109e-014 -1.42109e-014 4.49125 -23.4122 10.7247 9.91412 0 0 5.86604 -50.8782 1.51008 -3.55271e-015 -41.4279 0 -167.317 76.657 161.767 3.55271e-015 -41.0254 1.42109e-014 -6.42288 -28.7243 12.4143 0 -6.44418 14.8712 -9.93923e-017 -3.18055e-015 1.19271e-015 -9.91412 0 -2.84217e-014 -21.7836 -42.9319 -14.594 0 -41.4279 0 166.955 82.8411 -143.198 7.10543e-015 -41.0254 0 -9.07967 -31.9383 -32.4316 0 -6.44418 14.8712 -3.18055e-015 -4.77083e-015 1.27222e-014 
0 0 0 0 0 -0 -13.6342 62.6517 -136.72 3.98466 -7.32518 -14.002 0 8.12958 1.42109e-014 8.14616 52.8809 -7.03692 0 26.3907 0 -0.281244 12.4166 -2.95007 -7.10543e-015 26.2823 2.3893 0.979699 -16.784 -22.447 1.42109e-014 13.8798 -1.98282 14.5675 -13.5591 -20.0096 3.97789 23.5745 -0.27352 -15.6152 19.9808 -11.7451 13.7626 0 -1.42109e-014 -10.08 28.7984 -49.1969 26.1014 0 0 51.7092 -33.7802 -59.89 29.9599 7.10543e-015 0 -6.78657 -2.99544 -1.15087 -3.9517 23.5745 -0.27352 13.797 12.4977 15.4666 -13.7626 7.10543e-015 0 11.2652 26.0291 39.9382 -26.1014 1.42109e-014 0 -22.5518 -28.0747 25.5538 -29.9599 -7.10543e-015 0 5.41654 -22.8952 11.7367 9.91412 0 0 5.90014 -51.1226 1.32631 3.55271e-015 -41.4279 1.42109e-014 -165.65 77.3183 160.4 0 -41.0254 1.42109e-014 -6.62486 -28.7984 12.2511 -8.88178e-016 -6.44418 14.8712 -2.98177e-016 -3.18055e-015 -0 -9.91412 0 -2.84217e-014 -22.1725 -42.804 -14.682 0 -41.4279 -1.42109e-014 166.727 82.8358 -143.124 -7.10543e-015 -41.0254 -2.84217e-014 -8.89208 -32.1275 -32.5507 -1.42109e-014 -6.44418 14.8712 -7.95139e-016 1.59028e-015 1.27222e-014 
0 0 0 0 0 -0 -13.4022 62.6657 -136.466 4.05483 -7.40653 -14.1013 0 8.12958 1.42109e-014 8.16226 52.908 -7.09789 0 26.3907 0 -0.306908 12.3991 -2.99788 0 26.2823 2.3893 0.969828 -16.7815 -22.4907 1.42109e-014 13.8798 -1.98282 14.5262 -13.4984 -20.0704 3.97789 23.5745 -0.27352 -15.5362 20.0287 -11.7975 13.7626 0 1.42109e-014 -10.1664 28.7878 -49.2103 26.1014 0 3.55271e-015 51.6116 -33.834 -59.9888 29.9599 -7.10543e-015 0 -6.83497 -3.06083 -1.23412 -3.9517 23.5745 -0.27352 13.9038 12.6826 15.422 -13.7626 0 0 11.087 25.9627 39.8659 -26.1014 0 0 -22.6281 -27.7908 25.2789 -29.9599 7.10543e-015 1.42109e-014 5.45419 -22.6508 11.3153 9.91412 0 1.42109e-014 6.02596 -51.264 1.14528 0 -41.4279 -7.10543e-015 -164.347 77.974 158.807 0 -41.0254 1.42109e-014 -6.93762 -28.935 12.1457 8.88178e-016 -6.44418 14.8712 -4.96962e-016 -1.59028e-015 3.97569e-016 -9.91412 1.42109e-014 1.42109e-014 -22.4345 -42.5795 -14.6837 -1.42109e-014 -41.4279 0 166.345 82.8829 -143.116 0 -41.0254 -1.42109e-014 -8.62344 -32.3423 -32.3053 0 -6.44418 14.8712 -1.76556e-031 1.59028e-015 6.36111e-015 
